                                                                        S      1
,,,3HCap,22HAutoCAD 2021 - English,62HAutodesk Translation Framework DWGG      1
 producer (atf_dwg_producer),32,38,7,99,15,,1.,2,2HMM,1,0.08,15H20200707G      2
.110656,0.01,10000.,,7Hunknown,11,0,15H20200627.093203;                 G      3
     186       1                       0                        00000000D      1
     186            -221       1       0                               0D      2
     514       2                                                00010000D      3
     514                       2       1                               0D      4
     510       4                                                00010000D      5
     510            -221       1       1                               0D      6
     510       5                                                00010000D      7
     510            -221       1       1                               0D      8
     510       6                                                00010000D      9
     510            -221       1       1                               0D     10
     510       7                                                00010000D     11
     510            -221       1       1                               0D     12
     510       8                                                00010000D     13
     510            -221       1       1                               0D     14
     510       9                                                00010000D     15
     510            -221       1       1                               0D     16
     510      10                                                00010000D     17
     510            -221       1       1                               0D     18
     510      11                                                00010000D     19
     510            -221       1       1                               0D     20
     510      12                                                00010000D     21
     510            -221       1       1                               0D     22
     510      13                                                00010000D     23
     510            -221       1       1                               0D     24
     510      14                                                00010000D     25
     510            -221       1       1                               0D     26
     510      15                                                00010000D     27
     510            -221       1       1                               0D     28
     510      16                                                00010000D     29
     510            -221       1       1                               0D     30
     510      17                                                00010000D     31
     510            -221       1       1                               0D     32
     510      18                                                00010000D     33
     510            -221       1       1                               0D     34
     510      19                                                00010000D     35
     510            -221       1       1                               0D     36
     510      20                                                00010000D     37
     510            -221       1       1                               0D     38
     510      21                                                00010000D     39
     510            -221       1       1                               0D     40
     508      22                                                00010000D     41
     508                       1       1                               0D     42
     508      23                                                00010000D     43
     508                       2       1                               0D     44
     508      25                                                00010000D     45
     508                       1       1                               0D     46
     508      26                                                00010000D     47
     508                       1       1                               0D     48
     508      27                                                00010000D     49
     508                       1       1                               0D     50
     508      28                                                00010000D     51
     508                       1       1                               0D     52
     508      29                                                00010000D     53
     508                       1       1                               0D     54
     508      30                                                00010000D     55
     508                       1       1                               0D     56
     508      31                                                00010000D     57
     508                       1       1                               0D     58
     508      32                                                00010000D     59
     508                       1       1                               0D     60
     508      33                                                00010000D     61
     508                       1       1                               0D     62
     508      34                                                00010000D     63
     508                       2       1                               0D     64
     508      36                                                00010000D     65
     508                       1       1                               0D     66
     508      37                                                00010000D     67
     508                       2       1                               0D     68
     508      39                                                00010000D     69
     508                       2       1                               0D     70
     508      41                                                00010000D     71
     508                       2       1                               0D     72
     508      43                                                00010000D     73
     508                       1       1                               0D     74
     508      44                                                00010000D     75
     508                       1       1                               0D     76
     508      45                                                00010000D     77
     508                       1       1                               0D     78
     508      46                                                00010000D     79
     508                       2       1                               0D     80
     508      48                                                00010000D     81
     508                       1       1                               0D     82
     508      49                                                00010000D     83
     508                       1       1                               0D     84
     126      50                                                00010000D     85
     126       0              10       0                               0D     86
     126      60                                                00010000D     87
     126       0               4       0                               0D     88
     126      64                                                00010000D     89
     126       0              10       0                               0D     90
     126      74                                                00010000D     91
     126       0               2       0                               0D     92
     126      76                                                00010000D     93
     126       0               2       0                               0D     94
     126      78                                                00010000D     95
     126       0               6       0                               0D     96
     126      84                                                00010000D     97
     126       0               2       0                               0D     98
     126      86                                                00010000D     99
     126       0               2       0                               0D    100
     126      88                                                00010000D    101
     126       0               2       0                               0D    102
     126      90                                                00010000D    103
     126       0               5       0                               0D    104
     126      95                                                00010000D    105
     126       0               2       0                               0D    106
     126      97                                                00010000D    107
     126       0               9       0                               0D    108
     126     106                                                00010000D    109
     126       0              10       0                               0D    110
     126     116                                                00010000D    111
     126       0               2       0                               0D    112
     126     118                                                00010000D    113
     126       0               4       0                               0D    114
     126     122                                                00010000D    115
     126       0               9       0                               0D    116
     126     131                                                00010000D    117
     126       0               8       0                               0D    118
     126     139                                                00010000D    119
     126       0               2       0                               0D    120
     126     141                                                00010000D    121
     126       0               5       0                               0D    122
     126     146                                                00010000D    123
     126       0               5       0                               0D    124
     126     151                                                00010000D    125
     126       0               2       0                               0D    126
     126     153                                                00010000D    127
     126       0               5       0                               0D    128
     126     158                                                00010000D    129
     126       0               2       0                               0D    130
     126     160                                                00010000D    131
     126       0               5       0                               0D    132
     126     165                                                00010000D    133
     126       0               2       0                               0D    134
     126     167                                                00010000D    135
     126       0               2       0                               0D    136
     126     169                                                00010000D    137
     126       0               2       0                               0D    138
     126     171                                                00010000D    139
     126       0               2       0                               0D    140
     126     173                                                00010000D    141
     126       0               6       0                               0D    142
     126     179                                                00010000D    143
     126       0               2       0                               0D    144
     126     181                                                00010000D    145
     126       0               2       0                               0D    146
     126     183                                                00010000D    147
     126       0               2       0                               0D    148
     126     185                                                00010000D    149
     126       0               2       0                               0D    150
     126     187                                                00010000D    151
     126       0               2       0                               0D    152
     126     189                                                00010000D    153
     126       0               2       0                               0D    154
     126     191                                                00010000D    155
     126       0               2       0                               0D    156
     126     193                                                00010000D    157
     126       0               6       0                               0D    158
     126     199                                                00010000D    159
     126       0               2       0                               0D    160
     126     201                                                00010000D    161
     126       0               2       0                               0D    162
     126     203                                                00010000D    163
     126       0               2       0                               0D    164
     126     205                                                00010000D    165
     126       0               2       0                               0D    166
     126     207                                                00010000D    167
     126       0               6       0                               0D    168
     126     213                                                00010000D    169
     126       0               2       0                               0D    170
     126     215                                                00010000D    171
     126       0               5       0                               0D    172
     126     220                                                00010000D    173
     126       0               2       0                               0D    174
     126     222                                                00010000D    175
     126       0               2       0                               0D    176
     128     224                                                00010000D    177
     128       0    -221      16       0                               0D    178
     128     240                                                00010000D    179
     128       0    -221       4       0                               0D    180
     128     244                                                00010000D    181
     128       0    -221      14       0                               0D    182
     128     258                                                00010000D    183
     128       0    -221      16       0                               0D    184
     128     274                                                00010000D    185
     128       0    -221      11       0                               0D    186
     128     285                                                00010000D    187
     128       0    -221       6       0                               0D    188
     128     291                                                00010000D    189
     128       0    -221       7       0                               0D    190
     128     298                                                00010000D    191
     128       0    -221       3       0                               0D    192
     128     301                                                00010000D    193
     128       0    -221      10       0                               0D    194
     128     311                                                00010000D    195
     128       0    -221       4       0                               0D    196
     128     315                                                00010000D    197
     128       0    -221       4       0                               0D    198
     128     319                                                00010000D    199
     128       0    -221       4       0                               0D    200
     128     323                                                00010000D    201
     128       0    -221       5       0                               0D    202
     128     328                                                00010000D    203
     128       0    -221       4       0                               0D    204
     128     332                                                00010000D    205
     128       0    -221       4       0                               0D    206
     128     336                                                00010000D    207
     128       0    -221       5       0                               0D    208
     128     341                                                00010000D    209
     128       0    -221       9       0                               0D    210
     128     350                                                00010000D    211
     128       0    -221      11       0                               0D    212
     502     361                                                00010000D    213
     502                      10       1                               0D    214
     504     371                                                00010001D    215
     504                      13       1                               0D    216
     406     384                                                00000000D    217
     406                       1      15                               0D    218
     406     385                       0                        00000000D    219
     406            -221       1       3                               0D    220
     314     386                                                00000200D    221
     314                       1       0                               0D    222
186,3,1,0,0,1,217;                                                     1P      1
514,18,5,1,7,1,9,1,11,1,13,1,15,1,17,1,19,1,21,1,23,1,25,1,27,1,       3P      2
29,1,31,1,33,1,35,1,37,1,39,1;                                         3P      3
510,177,1,1,41;                                                        5P      4
510,179,3,1,43,45,47;                                                  7P      5
510,181,1,1,49;                                                        9P      6
510,183,1,1,51;                                                       11P      7
510,185,1,1,53;                                                       13P      8
510,187,1,1,55;                                                       15P      9
510,189,1,1,57;                                                       17P     10
510,191,1,1,59;                                                       19P     11
510,193,1,1,61;                                                       21P     12
510,195,1,1,63;                                                       23P     13
510,197,1,1,65;                                                       25P     14
510,199,1,1,67;                                                       27P     15
510,201,1,1,69;                                                       29P     16
510,203,1,1,71;                                                       31P     17
510,205,3,1,73,75,77;                                                 33P     18
510,207,1,1,79;                                                       35P     19
510,209,1,1,81;                                                       37P     20
510,211,1,1,83;                                                       39P     21
508,4,0,215,1,1,0,0,215,2,1,0,0,215,3,1,0,0,215,2,0,0;                41P     22
508,8,0,215,4,0,0,0,215,5,1,0,0,215,6,1,0,0,215,7,1,0,0,215,8,0,      43P     23
0,0,215,9,1,0,0,215,10,1,0,0,215,11,1,0;                              43P     24
508,1,0,215,12,0,0;                                                   45P     25
508,1,0,215,1,0,0;                                                    47P     26
508,4,0,215,13,0,0,0,215,14,1,0,0,215,3,0,0,0,215,14,0,0;             49P     27
508,4,0,215,12,1,0,0,215,15,1,0,0,215,16,1,0,0,215,15,0,0;            51P     28
508,4,0,215,17,0,0,0,215,18,1,0,0,215,16,0,0,0,215,18,0,0;            53P     29
508,4,0,215,19,1,0,0,215,4,1,0,0,215,20,1,0,0,215,21,1,0;             55P     30
508,4,0,215,22,1,0,0,215,23,1,0,0,215,24,1,0,0,215,8,1,0;             57P     31
508,4,0,215,23,0,0,0,215,25,1,0,0,215,26,0,0,0,215,27,0,0;            59P     32
508,4,0,215,6,0,0,0,215,28,1,0,0,215,29,0,0,0,215,30,0,0;             61P     33
508,5,0,215,5,0,0,0,215,19,0,0,0,215,31,1,0,0,215,32,0,0,0,215,       63P     34
28,0,0;                                                               63P     35
508,4,0,215,21,0,0,0,215,33,1,0,0,215,34,0,0,0,215,31,0,0;            65P     36
508,5,0,215,7,0,0,0,215,30,1,0,0,215,35,0,0,0,215,25,0,0,0,215,       67P     37
22,0,0;                                                               67P     38
508,8,0,215,35,1,0,0,215,29,1,0,0,215,32,1,0,0,215,34,1,0,0,215,      69P     39
36,1,0,0,215,37,1,0,0,215,38,1,0,0,215,26,1,0;                        69P     40
508,7,0,215,39,1,0,0,215,40,1,0,0,215,9,0,0,0,215,24,0,0,0,215,       71P     41
27,1,0,0,215,38,0,0,0,215,41,0,0;                                     71P     42
508,4,0,215,39,0,0,0,215,42,0,0,0,215,43,1,0,0,215,44,0,0;            73P     43
508,1,0,215,17,1,0;                                                   75P     44
508,1,0,215,13,1,0;                                                   77P     45
508,7,0,215,11,0,0,0,215,45,0,0,0,215,43,0,0,0,215,46,1,0,0,215,      79P     46
36,0,0,0,215,33,0,0,0,215,20,0,0;                                     79P     47
508,4,0,215,44,1,0,0,215,45,1,0,0,215,10,0,0,0,215,40,0,0;            81P     48
508,4,0,215,42,1,0,0,215,41,1,0,0,215,37,0,0,0,215,46,0,0;            83P     49
126,8,2,0,1,0,0,-3.14159265358979,-3.14159265358979,                  85P     50
-3.14159265358979,-1.5707963267949,-1.5707963267949,0.,0.,            85P     51
1.5707963267949,1.5707963267949,3.14159265358979,                     85P     52
3.14159265358979,3.14159265358979,1.,0.707106781186548,1.,            85P     53
0.707106781186548,1.,0.707106781186548,1.,0.707106781186548,1.,       85P     54
0.45,1.83697019872103D-16,0.3,0.45,0.45,0.3,                          85P     55
-2.75545529808155D-17,0.45,0.3,-0.45,0.45,0.3,-0.45,                  85P     56
1.28587913910472D-16,0.3,-0.45,-0.45,0.3,-2.75545529808155D-17,       85P     57
-0.45,0.3,0.45,-0.45,0.3,0.45,7.34788079488412D-17,0.3,               85P     58
-3.14159265358979,3.14159265358979,0.,0.,0.;                          85P     59
126,1,1,0,0,1,0,-0.543928293220421,-0.543928293220421,                87P     60
0.543928293220421,0.543928293220421,1.,1.,0.45,                       87P     61
1.28587913910472D-16,0.3,0.2,1.28587913910472D-16,0.05,               87P     62
-0.543928293220421,0.543928293220421,0.,0.,0.;                        87P     63
126,8,2,0,1,0,0,-3.14159265358979,-3.14159265358979,                  89P     64
-3.14159265358979,-1.5707963267949,-1.5707963267949,0.,0.,            89P     65
1.5707963267949,1.5707963267949,3.14159265358979,                     89P     66
3.14159265358979,3.14159265358979,1.,0.707106781186548,1.,            89P     67
0.707106781186548,1.,0.707106781186548,1.,0.707106781186548,1.,       89P     68
0.2,1.04094977927525D-16,0.05,0.2,-0.2,0.05,                          89P     69
-1.22464679914735D-17,-0.2,0.05,-0.2,-0.2,0.05,-0.2,                  89P     70
1.28587913910472D-16,0.05,-0.2,0.2,0.05,-1.22464679914735D-17,        89P     71
0.2,0.05,0.2,0.2,0.05,0.2,1.53080849893419D-16,0.05,                  89P     72
-3.14159265358979,3.14159265358979,0.,0.,0.;                          89P     73
126,1,1,0,0,1,0,3.75,3.75,6.75,6.75,1.,1.,-0.75,1.05,0.3,-1.05,       91P     74
1.05,0.3,3.75,6.75,0.,0.,0.;                                          91P     75
126,1,1,0,0,1,0,-6.75,-6.75,3.75,3.75,1.,1.,-0.75,1.05,0.3,           93P     76
-0.75,1.11022302462516D-16,0.3,-6.75,3.75,0.,0.,0.;                   93P     77
126,4,2,0,0,0,0,0.,0.,0.,1.5707963267949,1.5707963267949,             95P     78
3.14159265358979,3.14159265358979,3.14159265358979,1.,                95P     79
0.707106781186547,1.,0.707106781186547,1.,-0.75,                      95P     80
9.18485099360515D-17,0.3,-0.75,-0.75,0.3,4.32285034249392D-17,        95P     81
-0.75,0.3,0.75,-0.75,0.3,0.75,-6.06133593207796D-18,0.3,0.,           95P     82
3.14159265358979,0.,0.,0.;                                            95P     83
126,1,1,0,0,1,0,-7.5,-7.5,3.,3.,1.,1.,0.75,0.,0.3,0.75,1.05,0.3,      97P     84
-7.5,3.,0.,0.,0.;                                                     97P     85
126,1,1,0,0,1,0,-5.25,-5.25,-2.25,-2.25,1.,1.,1.05,1.05,0.3,          99P     86
0.75,1.05,0.3,-5.25,-2.25,0.,0.,0.;                                   99P     87
126,1,1,0,0,1,0,10.5,10.5,15.,15.,1.,1.,1.05,1.05,0.3,1.05,1.5,      101P     88
0.3,10.5,15.,0.,0.,0.;                                               101P     89
126,4,2,0,0,0,0,0.,0.,0.,1.5707963267949,1.5707963267949,            103P     90
3.14159265358979,3.14159265358979,3.14159265358979,1.,               103P     91
0.707106781186548,1.,0.707106781186547,1.,1.05,1.5,0.3,1.05,         103P     92
2.55,0.3,1.28587913910472D-16,2.55,0.3,-1.05,2.55,0.3,-1.05,1.5,     103P     93
0.3,0.,3.14159265358979,0.,0.,0.;                                    103P     94
126,1,1,0,0,1,0,-15.,-15.,-10.5,-10.5,1.,1.,-1.05,1.5,0.3,-1.05,     105P     95
1.05,0.3,-15.,-10.5,0.,0.,0.;                                        105P     96
126,8,2,0,1,0,0,-3.14159265358979,-3.14159265358979,                 107P     97
-3.14159265358979,-1.5707963267949,-1.5707963267949,0.,0.,           107P     98
1.5707963267949,1.5707963267949,3.14159265358979,                    107P     99
3.14159265358979,3.14159265358979,1.,0.707106781186547,1.,           107P    100
0.707106781186547,1.,0.707106781186547,1.,0.707106781186547,1.,      107P    101
0.45,1.5,0.3,0.45,1.95,0.3,-2.75545529808155D-17,1.95,0.3,-0.45,     107P    102
1.95,0.3,-0.45,1.5,0.3,-0.45,1.05,0.3,-2.75545529808155D-17,         107P    103
1.05,0.3,0.45,1.05,0.3,0.45,1.5,0.3,-3.14159265358979,               107P    104
3.14159265358979,0.,0.,0.;                                           107P    105
126,8,2,0,1,0,0,-3.14159265358979,-3.14159265358979,                 109P    106
-3.14159265358979,-1.5707963267949,-1.5707963267949,0.,0.,           109P    107
1.5707963267949,1.5707963267949,3.14159265358979,                    109P    108
3.14159265358979,3.14159265358979,1.,0.707106781186548,1.,           109P    109
0.707106781186548,1.,0.707106781186548,1.,0.707106781186548,1.,      109P    110
0.2,1.53080849893419D-16,0.,0.2,0.2,0.,-1.22464679914735D-17,        109P    111
0.2,0.,-0.2,0.2,0.,-0.2,1.28587913910472D-16,0.,-0.2,-0.2,0.,        109P    112
-1.22464679914735D-17,-0.2,0.,0.2,-0.2,0.,0.2,                       109P    113
1.04094977927525D-16,0.,-3.14159265358979,3.14159265358979,0.,       109P    114
0.,0.;                                                               109P    115
126,1,1,0,0,1,0,0.,0.,0.25,0.25,1.,1.,0.2,1.28587913910472D-16,      111P    116
0.,0.2,1.28587913910472D-16,0.05,0.,0.25,0.,0.,0.;                   111P    117
126,1,1,0,0,1,0,-0.543928293220421,-0.543928293220421,               113P    118
0.543928293220422,0.543928293220422,1.,1.,0.45,1.5,0.3,0.2,1.5,      113P    119
0.0499999999999999,-0.543928293220421,0.543928293220422,0.,0.,       113P    120
0.;                                                                  113P    121
126,8,2,0,1,0,0,-3.14159265358979,-3.14159265358979,                 115P    122
-3.14159265358979,-1.5707963267949,-1.5707963267949,0.,0.,           115P    123
1.5707963267949,1.5707963267949,3.14159265358979,                    115P    124
3.14159265358979,3.14159265358979,1.,0.707106781186547,1.,           115P    125
0.707106781186547,1.,0.707106781186547,1.,0.707106781186547,1.,      115P    126
0.2,1.5,0.05,0.2,1.3,0.05,-1.22464679914735D-17,1.3,0.05,-0.2,       115P    127
1.3,0.05,-0.2,1.5,0.05,-0.2,1.7,0.05,-1.22464679914735D-17,1.7,      115P    128
0.05,0.2,1.7,0.05,0.2,1.5,0.05,-3.14159265358979,                    115P    129
3.14159265358979,0.,0.,0.;                                           115P    130
126,8,2,0,1,0,0,-3.14159265358979,-3.14159265358979,                 117P    131
-3.14159265358979,-1.5707963267949,-1.5707963267949,0.,0.,           117P    132
1.5707963267949,1.5707963267949,3.14159265358979,                    117P    133
3.14159265358979,3.14159265358979,1.,0.707106781186547,1.,           117P    134
0.707106781186547,1.,0.707106781186547,1.,0.707106781186547,1.,      117P    135
0.2,1.5,0.,0.2,1.7,0.,-1.22464679914735D-17,1.7,0.,-0.2,1.7,0.,      117P    136
-0.2,1.5,0.,-0.2,1.3,0.,-1.22464679914735D-17,1.3,0.,0.2,1.3,0.,     117P    137
0.2,1.5,0.,-3.14159265358979,3.14159265358979,0.,0.,0.;              117P    138
126,1,1,0,0,1,0,0.,0.,0.25,0.25,1.,1.,0.2,1.5,0.,0.2,1.5,0.05,       119P    139
0.,0.25,0.,0.,0.;                                                    119P    140
126,2,2,0,0,0,0,-0.785398163397449,-0.785398163397449,               121P    141
-0.785398163397449,0.785398163397448,0.785398163397448,              121P    142
0.785398163397448,1.,0.707106781186548,1.,-0.75,0.75,0.6,-0.75,      121P    143
0.75,0.3,-0.75,1.05,0.3,-0.785398163397449,0.785398163397448,0.,     121P    144
0.,0.;                                                               121P    145
126,2,2,0,0,0,0,-0.785398163397448,-0.785398163397448,               123P    146
-0.785398163397448,0.785398163397449,0.785398163397449,              123P    147
0.785398163397449,1.,0.707106781186548,1.,-1.05,1.05,0.3,-1.05,      123P    148
0.75,0.3,-1.05,0.75,0.6,-0.785398163397448,0.785398163397449,0.,     123P    149
0.,0.;                                                               123P    150
126,1,1,0,0,1,0,-6.75,-6.75,-3.75,-3.75,1.,1.,-1.05,0.75,0.6,        125P    151
-0.75,0.75,0.6,-6.75,-3.75,0.,0.,0.;                                 125P    152
126,2,2,0,0,0,0,-0.785398163397448,-0.785398163397448,               127P    153
-0.785398163397448,0.785398163397448,0.785398163397448,              127P    154
0.785398163397448,1.,0.707106781186547,1.,0.75,1.05,0.3,0.75,        127P    155
0.750000000000001,0.3,0.75,0.750000000000001,0.6,                    127P    156
-0.785398163397448,0.785398163397448,0.,0.,0.;                       127P    157
126,1,1,0,0,1,0,2.25,2.25,5.25,5.25,1.,1.,0.75,0.75,0.6,1.05,        129P    158
0.75,0.6,2.25,5.25,0.,0.,0.;                                         129P    159
126,2,2,0,0,0,0,-0.785398163397448,-0.785398163397448,               131P    160
-0.785398163397448,0.785398163397448,0.785398163397448,              131P    161
0.785398163397448,1.,0.707106781186547,1.,1.05,0.75,0.6,1.05,        131P    162
0.75,0.3,1.05,1.05,0.3,-0.785398163397448,0.785398163397448,0.,      131P    163
0.,0.;                                                               131P    164
126,1,1,0,0,1,0,6.,6.,15.,15.,1.,1.,0.75,0.75,0.6,0.75,0.75,1.5,     133P    165
6.,15.,0.,0.,0.;                                                     133P    166
126,1,1,0,0,1,0,-3.,-3.,0.,0.,1.,1.,1.05,0.75,1.5,0.75,0.75,1.5,     135P    167
-3.,0.,0.,0.,0.;                                                     135P    168
126,1,1,0,0,1,0,6.,6.,15.,15.,1.,1.,1.05,0.75,0.6,1.05,0.75,1.5,     137P    169
6.,15.,0.,0.,0.;                                                     137P    170
126,1,1,0,0,1,0,3.,3.,15.,15.,1.,1.,-0.75,9.18485099360515D-17,      139P    171
0.3,-0.75,9.18485099360515D-17,1.5,3.,15.,0.,0.,0.;                  139P    172
126,4,2,0,0,0,0,-3.14159265358979,-3.14159265358979,                 141P    173
-3.14159265358979,-1.5707963267949,-1.5707963267949,0.,0.,0.,1.,     141P    174
0.707106781186547,1.,0.707106781186547,1.,0.75,                      141P    175
-6.06133593207796D-18,1.5,0.75,-0.75,1.5,4.32285034249392D-17,       141P    176
-0.75,1.5,-0.75,-0.75,1.5,-0.75,9.18485099360515D-17,1.5,            141P    177
-3.14159265358979,0.,0.,0.,0.;                                       141P    178
126,1,1,0,0,1,0,3.,3.,15.,15.,1.,1.,0.75,-6.06133593207795D-18,      143P    179
0.3,0.75,-6.06133593207795D-18,1.5,3.,15.,0.,0.,0.;                  143P    180
126,1,1,0,0,1,0,6.,6.,15.,15.,1.,1.,-0.75,0.75,0.6,-0.75,0.75,       145P    181
1.5,6.,15.,0.,0.,0.;                                                 145P    182
126,1,1,0,0,1,0,0.,0.,7.5,7.5,1.,1.,-0.75,9.18485099360515D-17,      147P    183
1.5,-0.75,0.75,1.5,0.,7.5,0.,0.,0.;                                  147P    184
126,1,1,0,0,1,0,6.,6.,15.,15.,1.,1.,-1.05,0.75,0.6,-1.05,0.75,       149P    185
1.5,6.,15.,0.,0.,0.;                                                 149P    186
126,1,1,0,0,1,0,-3.,-3.,0.,0.,1.,1.,-0.75,0.75,1.5,-1.05,0.75,       151P    187
1.5,-3.,0.,0.,0.,0.;                                                 151P    188
126,1,1,0,0,1,0,-7.5,-7.5,0.,0.,1.,1.,0.75,0.75,1.5,0.75,0.,1.5,     153P    189
-7.5,0.,0.,0.,0.;                                                    153P    190
126,1,1,0,0,1,0,-7.5,-7.5,0.,0.,1.,1.,-1.05,0.75,1.5,-1.05,          155P    191
9.18485099360515D-17,1.5,-7.5,0.,0.,0.,0.;                           155P    192
126,4,2,0,0,0,0,0.,0.,0.,1.5707963267949,1.5707963267949,            157P    193
3.14159265358979,3.14159265358979,3.14159265358979,1.,               157P    194
0.707106781186548,1.,0.707106781186547,1.,-1.05,                     157P    195
1.28587913910472D-16,1.5,-1.05,-1.05,1.5,-2.8549607721305D-17,       157P    196
-1.05,1.5,1.05,-1.05,1.5,1.05,9.80955400591059D-17,1.5,0.,           157P    197
3.14159265358979,0.,0.,0.;                                           157P    198
126,1,1,0,0,1,0,0.,0.,7.5,7.5,1.,1.,1.05,0.,1.5,1.05,0.75,1.5,       159P    199
0.,7.5,0.,0.,0.;                                                     159P    200
126,1,1,0,0,1,0,0.,0.,15.,15.,1.,1.,1.05,-1.53483821925629D-17,      161P    201
0.,1.05,1.5,0.,0.,15.,0.,0.,0.;                                      161P    202
126,1,1,0,0,1,0,0.,0.,3.,3.,1.,1.,1.05,1.5,0.,1.05,1.5,0.3,0.,       163P    203
3.,0.,0.,0.;                                                         163P    204
126,1,1,0,0,1,0,0.,0.,15.,15.,1.,1.,1.05,2.75731223999131D-16,       165P    205
0.,1.05,2.75731223999131D-16,1.5,0.,15.,0.,0.,0.;                    165P    206
126,4,2,0,0,0,0,0.,0.,0.,1.5707963267949,1.5707963267949,            167P    207
3.14159265358979,3.14159265358979,3.14159265358979,1.,               167P    208
0.707106781186548,1.,0.707106781186547,1.,-1.05,                     167P    209
3.06223597850497D-16,0.,-1.05,-1.05,0.,-4.18530285169269D-17,        167P    210
-1.05,0.,1.05,-1.05,0.,1.05,2.75731223999131D-16,0.,0.,              167P    211
3.14159265358979,0.,0.,0.;                                           167P    212
126,1,1,0,0,1,0,0.,0.,15.,15.,1.,1.,-1.05,1.07116501915633D-16,      169P    213
0.,-1.05,1.5,0.,0.,15.,0.,0.,0.;                                     169P    214
126,4,2,0,0,0,0,0.,0.,0.,1.5707963267949,1.5707963267949,            171P    215
3.14159265358979,3.14159265358979,3.14159265358979,1.,               171P    216
0.707106781186548,1.,0.707106781186547,1.,1.05,1.5,0.,1.05,2.55,     171P    217
0.,1.28587913910472D-16,2.55,0.,-1.05,2.55,0.,-1.05,1.5,0.,0.,       171P    218
3.14159265358979,0.,0.,0.;                                           171P    219
126,1,1,0,0,1,0,0.,0.,3.,3.,1.,1.,-1.05,1.5,0.,-1.05,1.5,0.3,0.,     173P    220
3.,0.,0.,0.;                                                         173P    221
126,1,1,0,0,1,0,0.,0.,15.,15.,1.,1.,-1.05,3.06223597850497D-16,      175P    222
0.,-1.05,3.06223597850497D-16,1.5,0.,15.,0.,0.,0.;                   175P    223
128,1,8,1,2,0,1,0,0,1,-0.543928293220421,-0.543928293220421,         177P    224
0.543928293220421,0.543928293220421,-3.14159265358979,               177P    225
-3.14159265358979,-3.14159265358979,-1.5707963267949,                177P    226
-1.5707963267949,0.,0.,1.5707963267949,1.5707963267949,              177P    227
3.14159265358979,3.14159265358979,3.14159265358979,1.,1.,            177P    228
0.707106781186548,0.707106781186548,1.,1.,0.707106781186548,         177P    229
0.707106781186548,1.,1.,0.707106781186548,0.707106781186548,1.,      177P    230
1.,0.707106781186548,0.707106781186548,1.,1.,0.2,                    177P    231
1.28587913910472D-16,0.05,0.45,1.28587913910472D-16,0.3,0.2,0.2,     177P    232
0.05,0.45,0.45,0.3,0.,0.2,0.05,0.,0.45,0.3,-0.2,0.2,0.05,-0.45,      177P    233
0.45,0.3,-0.2,1.28587913910472D-16,0.05,-0.45,                       177P    234
1.28587913910472D-16,0.3,-0.2,-0.2,0.05,-0.45,-0.45,0.3,0.,-0.2,     177P    235
0.05,0.,-0.45,0.3,0.2,-0.2,0.05,0.45,-0.45,0.3,0.2,                  177P    236
1.28587913910472D-16,0.05,0.45,1.28587913910472D-16,0.3,             177P    237
-0.543928293220421,0.543928293220421,-3.14159265358979,              177P    238
3.14159265358979;                                                    177P    239
128,1,1,1,1,0,0,1,0,0,-10.501,-10.501,10.501,10.501,-15.001,         179P    240
-15.001,18.001,18.001,1.,1.,1.,1.,-1.0501,-0.7501,0.3,1.0501,        179P    241
-0.7501,0.3,-1.0501,2.5501,0.3,1.0501,2.5501,0.3,-10.501,10.501,     179P    242
-15.001,18.001;                                                      179P    243
128,1,8,1,2,0,1,0,0,1,0.,0.,0.25,0.25,-3.14159265358979,             181P    244
-3.14159265358979,-3.14159265358979,-1.5707963267949,                181P    245
-1.5707963267949,0.,0.,1.5707963267949,1.5707963267949,              181P    246
3.14159265358979,3.14159265358979,3.14159265358979,1.,1.,            181P    247
0.707106781186548,0.707106781186548,1.,1.,0.707106781186548,         181P    248
0.707106781186548,1.,1.,0.707106781186548,0.707106781186548,1.,      181P    249
1.,0.707106781186548,0.707106781186548,1.,1.,0.2,                    181P    250
1.28587913910472D-16,0.,0.2,1.28587913910472D-16,0.05,0.2,0.2,       181P    251
0.,0.2,0.2,0.05,0.,0.2,0.,0.,0.2,0.05,-0.2,0.2,0.,-0.2,0.2,0.05,     181P    252
-0.2,1.28587913910472D-16,0.,-0.2,1.28587913910472D-16,0.05,         181P    253
-0.2,-0.2,0.,-0.2,-0.2,0.05,0.,-0.2,0.,0.,-0.2,0.05,0.2,-0.2,0.,     181P    254
0.2,-0.2,0.05,0.2,1.28587913910472D-16,0.,0.2,                       181P    255
1.28587913910472D-16,0.05,0.,0.25,-3.14159265358979,                 181P    256
3.14159265358979;                                                    181P    257
128,1,8,1,2,0,1,0,0,1,-0.543928293220422,-0.543928293220422,         183P    258
0.543928293220421,0.543928293220421,-3.14159265358979,               183P    259
-3.14159265358979,-3.14159265358979,-1.5707963267949,                183P    260
-1.5707963267949,0.,0.,1.5707963267949,1.5707963267949,              183P    261
3.14159265358979,3.14159265358979,3.14159265358979,1.,1.,            183P    262
0.707106781186548,0.707106781186548,1.,1.,0.707106781186548,         183P    263
0.707106781186548,1.,1.,0.707106781186548,0.707106781186548,1.,      183P    264
1.,0.707106781186548,0.707106781186548,1.,1.,0.2,1.5,                183P    265
0.0499999999999999,0.45,1.5,0.3,0.2,1.7,0.0499999999999999,0.45,     183P    266
1.95,0.3,0.,1.7,0.0499999999999999,0.,1.95,0.3,-0.2,1.7,             183P    267
0.0499999999999999,-0.45,1.95,0.3,-0.2,1.5,0.0499999999999999,       183P    268
-0.45,1.5,0.3,-0.2,1.3,0.0499999999999999,-0.45,1.05,0.3,0.,1.3,     183P    269
0.0499999999999999,0.,1.05,0.3,0.2,1.3,0.0499999999999999,0.45,      183P    270
1.05,0.3,0.2,1.5,0.0499999999999999,0.45,1.5,0.3,                    183P    271
-0.543928293220422,0.543928293220421,-3.14159265358979,              183P    272
3.14159265358979;                                                    183P    273
128,1,8,1,2,0,1,0,0,1,0.,0.,0.25,0.25,-3.14159265358979,             185P    274
-3.14159265358979,-3.14159265358979,-1.5707963267949,                185P    275
-1.5707963267949,0.,0.,1.5707963267949,1.5707963267949,              185P    276
3.14159265358979,3.14159265358979,3.14159265358979,1.,1.,            185P    277
0.707106781186548,0.707106781186548,1.,1.,0.707106781186548,         185P    278
0.707106781186548,1.,1.,0.707106781186548,0.707106781186548,1.,      185P    279
1.,0.707106781186548,0.707106781186548,1.,1.,0.2,1.5,0.,0.2,1.5,     185P    280
0.05,0.2,1.7,0.,0.2,1.7,0.05,0.,1.7,0.,0.,1.7,0.05,-0.2,1.7,0.,      185P    281
-0.2,1.7,0.05,-0.2,1.5,0.,-0.2,1.5,0.05,-0.2,1.3,0.,-0.2,1.3,        185P    282
0.05,0.,1.3,0.,0.,1.3,0.05,0.2,1.3,0.,0.2,1.3,0.05,0.2,1.5,0.,       185P    283
0.2,1.5,0.05,0.,0.25,-3.14159265358979,3.14159265358979;             185P    284
128,1,2,1,2,0,0,0,0,0,-2.25,-2.25,-1.25,-1.25,                       187P    285
-0.785398163397449,-0.785398163397449,-0.785398163397449,            187P    286
0.785398163397448,0.785398163397448,0.785398163397448,1.,1.,         187P    287
0.707106781186547,0.707106781186547,1.,1.,-1.05,0.75,0.6,-0.75,      187P    288
0.75,0.6,-1.05,0.75,0.3,-0.75,0.75,0.3,-1.05,1.05,0.3,-0.75,         187P    289
1.05,0.3,-2.25,-1.25,-0.785398163397449,0.785398163397448;           187P    290
128,1,2,1,2,0,0,0,0,0,0.749999999999999,0.749999999999999,1.75,      189P    291
1.75,-0.785398163397449,-0.785398163397449,-0.785398163397449,       189P    292
0.785398163397449,0.785398163397449,0.785398163397449,1.,1.,         189P    293
0.707106781186547,0.707106781186547,1.,1.,0.75,                      189P    294
0.750000000000001,0.6,1.05,0.75,0.6,0.75,0.75,0.3,1.05,0.75,0.3,     189P    295
0.75,1.05,0.3,1.05,1.05,0.3,0.749999999999999,1.75,                  189P    296
-0.785398163397449,0.785398163397449;                                189P    297
128,1,1,1,1,0,0,1,0,0,-0.001,-0.001,3.001,3.001,5.999,5.999,         191P    298
15.001,15.001,1.,1.,1.,1.,1.0501,0.75,0.5999,0.7499,0.75,0.5999,     191P    299
1.0501,0.75,1.5001,0.7499,0.75,1.5001,-0.001,3.001,5.999,15.001;     191P    300
128,1,4,1,2,0,0,0,0,0,0.4,0.4,2.,2.,-6.16297582203915D-33,           193P    301
-6.16297582203915D-33,-6.16297582203915D-33,1.5707963267949,         193P    302
1.5707963267949,3.14159265358979,3.14159265358979,                   193P    303
3.14159265358979,1.,1.,0.707106781186548,0.707106781186548,1.,       193P    304
1.,0.707106781186548,0.707106781186548,1.,1.,-0.75,                  193P    305
9.18485099360515D-17,0.3,-0.75,9.18485099360515D-17,1.5,-0.75,       193P    306
-0.75,0.3,-0.75,-0.75,1.5,8.91527583929649D-17,-0.75,0.3,            193P    307
8.91527583929649D-17,-0.75,1.5,0.75,-0.75,0.3,0.75,-0.75,1.5,        193P    308
0.75,8.57871740039736D-17,0.3,0.75,8.57871740039736D-17,1.5,0.4,     193P    309
2.,-6.16297582203915D-33,3.14159265358979;                           193P    310
128,1,1,1,1,0,0,1,0,0,-0.001,-0.001,10.501,10.501,2.999,2.999,       195P    311
15.001,15.001,1.,1.,1.,1.,-0.75,-9.99999999999082D-5,0.2999,         195P    312
-0.75,1.0501,0.2999,-0.75,-9.99999999999082D-5,1.5001,-0.75,         195P    313
1.0501,1.5001,-0.001,10.501,2.999,15.001;                            195P    314
128,1,1,1,1,0,0,1,0,0,-0.001,-0.001,3.001,3.001,5.999,5.999,         197P    315
15.001,15.001,1.,1.,1.,1.,-0.7499,0.75,0.5999,-1.0501,0.75,          197P    316
0.5999,-0.7499,0.75,1.5001,-1.0501,0.75,1.5001,-0.001,3.001,         197P    317
5.999,15.001;                                                        197P    318
128,1,1,1,1,0,0,1,0,0,-3.001,-3.001,7.501,7.501,2.999,2.999,         199P    319
15.001,15.001,1.,1.,1.,1.,0.75,1.0501,0.2999,0.75,                   199P    320
-0.000100000000000322,0.2999,0.75,1.0501,1.5001,0.75,                199P    321
-0.000100000000000211,1.5001,-3.001,7.501,2.999,15.001;              199P    322
128,1,1,1,1,0,0,1,0,0,-10.501,-10.501,10.501,10.501,                 201P    323
-9.32448799808322,-9.32448799808322,8.67751200191678,                201P    324
8.67751200191678,1.,1.,1.,1.,-1.0501,-1.0501,1.5,1.0501,-1.0501,     201P    325
1.5,-1.0501,0.7501,1.5,1.0501,0.7501,1.5,-10.501,10.501,             201P    326
-9.32448799808322,8.67751200191678;                                  201P    327
128,1,1,1,1,0,0,1,0,0,-0.001,-0.001,15.001,15.001,-0.001,-0.001,     203P    328
15.001,15.001,1.,1.,1.,1.,1.05,-0.000100000000000015,-0.0001,        203P    329
1.05,1.5001,-0.0001,1.05,-0.000100000000000015,1.5001,1.05,          203P    330
1.5001,1.5001,-0.001,15.001,-0.001,15.001;                           203P    331
128,1,1,1,1,0,0,1,0,0,-10.501,-10.501,10.501,10.501,-18.001,         205P    332
-18.001,18.001,18.001,1.,1.,1.,1.,1.0501,-1.0501,0.,-1.0501,         205P    333
-1.0501,0.,1.0501,2.5501,0.,-1.0501,2.5501,0.,-10.501,10.501,        205P    334
-18.001,18.001;                                                      205P    335
128,1,1,1,1,0,0,1,0,0,-0.00100000000000222,-0.00100000000000222,     207P    336
15.001,15.001,-0.001,-0.001,15.001,15.001,1.,1.,1.,1.,-1.05,         207P    337
1.5001,-0.0001,-1.05,-9.9999999999989D-5,-0.0001,-1.05,1.5001,       207P    338
1.5001,-1.05,-9.9999999999989D-5,1.5001,-0.00100000000000222,        207P    339
15.001,-0.001,15.001;                                                207P    340
128,1,4,1,2,0,0,0,0,0,0.,0.,0.285714285714286,0.285714285714286,     209P    341
-2.11471052309554D-16,-2.11471052309554D-16,                         209P    342
-2.11471052309554D-16,1.5707963267949,1.5707963267949,               209P    343
3.14159265358979,3.14159265358979,3.14159265358979,1.,1.,            209P    344
0.707106781186548,0.707106781186548,1.,1.,0.707106781186548,         209P    345
0.707106781186548,1.,1.,1.05,1.5,0.3,1.05,1.5,0.,1.05,2.55,0.3,      209P    346
1.05,2.55,0.,6.4293956955236D-17,2.55,0.3,6.4293956955236D-17,       209P    347
2.55,0.,-1.05,2.55,0.3,-1.05,2.55,0.,-1.05,1.5,0.3,-1.05,1.5,0.,     209P    348
0.,0.285714285714286,-2.11471052309554D-16,3.14159265358979;         209P    349
128,1,4,1,2,0,0,0,0,0,0.,0.,1.42857142857143,1.42857142857143,       211P    350
-1.17390015657889D-32,-1.17390015657889D-32,                         211P    351
-1.17390015657889D-32,1.5707963267949,1.5707963267949,               211P    352
3.14159265358979,3.14159265358979,3.14159265358979,1.,1.,            211P    353
0.707106781186548,0.707106781186548,1.,1.,0.707106781186548,         211P    354
0.707106781186548,1.,1.,-1.05,3.06223597850497D-16,1.5,-1.05,        211P    355
3.06223597850497D-16,0.,-1.05,-1.05,1.5,-1.05,-1.05,0.,              211P    356
2.24409284383091D-17,-1.05,1.5,2.24409284383091D-17,-1.05,0.,        211P    357
1.05,-1.05,1.5,1.05,-1.05,0.,1.05,4.04319137909603D-16,1.5,1.05,     211P    358
4.04319137909603D-16,0.,0.,1.42857142857143,                         211P    359
-1.17390015657889D-32,3.14159265358979;                              211P    360
502,30,0.45,1.83697019872103D-16,0.3,0.2,1.04094977927525D-16,       213P    361
0.05,-0.75,1.05,0.3,-1.05,1.05,0.3,-0.75,9.18485099360515D-17,       213P    362
0.3,0.75,-6.06133593207795D-18,0.3,0.75,1.05,0.3,1.05,1.05,0.3,      213P    363
1.05,1.5,0.3,-1.05,1.5,0.3,0.45,1.5,0.3,0.2,                         213P    364
1.53080849893419D-16,0.,0.2,1.5,0.05,0.2,1.5,0.,-0.75,0.75,0.6,      213P    365
-1.05,0.75,0.6,0.75,0.75,0.6,1.05,0.75,0.6,0.75,0.75,1.5,1.05,       213P    366
0.75,1.5,-0.75,9.18485099360515D-17,1.5,0.75,                        213P    367
-6.06133593207795D-18,1.5,-0.75,0.75,1.5,-1.05,0.75,1.5,-1.05,       213P    368
1.28587913910472D-16,1.5,1.05,0.,1.5,1.05,2.75731223999131D-16,      213P    369
0.,1.05,1.5,0.,-1.05,3.06223597850497D-16,0.,-1.05,1.5,0.;           213P    370
504,46,85,213,1,213,1,87,213,1,213,2,89,213,2,213,2,91,213,3,        215P    371
213,4,93,213,3,213,5,95,213,5,213,6,97,213,6,213,7,99,213,8,213,     215P    372
7,101,213,8,213,9,103,213,9,213,10,105,213,10,213,4,107,213,11,      215P    373
213,11,109,213,12,213,12,111,213,12,213,2,113,213,11,213,13,115,     215P    374
213,13,213,13,117,213,14,213,14,119,213,14,213,13,121,213,15,        215P    375
213,3,123,213,4,213,16,125,213,16,213,15,127,213,7,213,17,129,       215P    376
213,17,213,18,131,213,18,213,8,133,213,17,213,19,135,213,20,213,     215P    377
19,137,213,18,213,20,139,213,5,213,21,141,213,22,213,21,143,213,     215P    378
6,213,22,145,213,15,213,23,147,213,21,213,23,149,213,16,213,24,      215P    379
151,213,23,213,24,153,213,19,213,22,155,213,24,213,25,157,213,       215P    380
25,213,26,159,213,26,213,20,161,213,27,213,28,163,213,28,213,9,      215P    381
165,213,27,213,26,167,213,29,213,27,169,213,29,213,30,171,213,       215P    382
28,213,30,173,213,30,213,10,175,213,29,213,25;                       215P    383
406,1,2H66;                                                          217P    384
406,2,0,1H0;                                                         219P    385
314,100.,100.,100.,;                                                 221P    386
S      1G      3D    222P    386                                        T      1
